<?xml version="1.0" encoding="UTF-8"?>
<svg id="ico_fp" xmlns="http://www.w3.org/2000/svg" xmlns:xlink="http://www.w3.org/1999/xlink" viewBox="0 0 48 48">
  <defs>
    <style>
      .cls-1 {
        fill: none;
      }

      .cls-2, .cls-3 {
        fill: #111;
      }

      .cls-4 {
        fill: #fff;
        filter: url(#drop-shadow-1);
      }

      .cls-4, .cls-3 {
        fill-rule: evenodd;
      }
    </style>
    <filter id="drop-shadow-1" x="4" y="4" width="40" height="44" filterUnits="userSpaceOnUse">
      <feOffset dx="0" dy="2"/>
      <feGaussianBlur result="blur" stdDeviation="2"/>
      <feFlood flood-color="#000" flood-opacity=".25"/>
      <feComposite in2="blur" operator="in"/>
      <feComposite in="SourceGraphic"/>
    </filter>
  </defs>
  <polygon class="cls-4" points="36 14 36 12 34 12 34 10 32 10 32 8 30 8 28 8 26 8 24 8 22 8 20 8 18 8 16 8 14 8 12 8 10 8 10 10 10 12 10 14 10 16 10 18 10 20 10 22 10 24 10 26 10 28 10 30 10 32 10 34 10 36 10 38 10 40 12 40 14 40 16 40 18 40 20 40 22 40 24 40 26 40 28 40 30 40 32 40 34 40 36 40 38 40 38 38 38 36 38 34 38 32 38 30 38 28 38 26 38 24 38 22 38 20 38 18 38 16 38 14 36 14"/>
  <polygon class="cls-1" points="30 12 30 14 30 16 32 16 34 16 36 16 36 14 34 14 34 12 32 12 32 10 30 10 30 12"/>
  <g>
    <rect class="cls-2" x="32" y="10" width="2" height="2"/>
    <rect class="cls-2" x="34" y="12" width="2" height="2"/>
    <path class="cls-2" d="M36,14v2h-6v-6h2v-2H10v32h28V14h-2ZM36,20v18H12V10h16v8h8v2Z"/>
  </g>
  <rect class="cls-2" x="14" y="32" width="2" height="2"/>
  <polygon class="cls-3" points="30 24 28 24 26 24 26 26 26 28 26 30 26 32 26 34 28 34 28 32 30 32 30 30 28 30 28 28 28 26 30 26 30 28 30 30 32 30 32 28 32 26 32 24 30 24"/>
  <rect class="cls-2" x="30" y="32" width="2" height="2"/>
  <g>
    <rect class="cls-2" x="18" y="24" width="2" height="4"/>
    <polygon class="cls-2" points="23.93 28 23.93 24 21.93 24 21.93 28 20 28 20 30 21.93 30 21.93 34 23.93 34 23.93 30 22 30 22 28 23.93 28"/>
    <rect class="cls-2" x="18" y="30" width="2" height="4"/>
  </g>
</svg>